Coordinates
version=1
nRows=9
nColumns=42
inDegrees=yes

Units are S.I. units (second, meters, Newtons, ...)
If the header above contains a line with 'inDegrees', this indicates whether rotational values are in degrees (yes) or radians (no).

endheader
time	pelvis_tilt	pelvis_list	pelvis_rotation	pelvis_tx	pelvis_ty	pelvis_tz	hip_flexion_r	hip_adduction_r	hip_rotation_r	knee_angle_r	knee_adduction_r	knee_angle_r_beta	ankle_angle_r	subtalar_angle_r	mtp_angle_r	hip_flexion_l	hip_adduction_l	hip_rotation_l	knee_angle_l	knee_adduction_l	knee_angle_l_beta	ankle_angle_l	subtalar_angle_l	mtp_angle_l	lumbar_extension	lumbar_bending	lumbar_rotation	arm_flex_r	arm_add_r	arm_rot_r	elbow_flex_r	pro_sup_r	wrist_flex_r	wrist_dev_r	arm_flex_l	arm_add_l	arm_rot_l	elbow_flex_l	pro_sup_l	wrist_flex_l	wrist_dev_l
      0.32000000	     -2.22454085	     -2.34560961	     -4.12912973	     -0.85047367	      0.85927936	     -0.20800279	    -14.28576403	     -4.81764587	      0.13127236	     13.33398595	     12.18260905	      0.23272196	     18.30257445	      4.51838017	     -8.81266292	     26.68560931	    -12.63742981	     -9.33051082	      9.96357122	     16.92736885	      0.17389712	     -2.13255083	     -6.42622789	     -8.81266292	    -10.69796027	      3.15292537	      6.88214365	      3.56320228	    -20.21894454	     -0.55400207	     39.66925145	     90.00000001	      0.00000000	      0.00000000	    -14.79569630	     -5.03256375	     -4.81061553	     16.37213878	     90.00000001	      0.00000000	      0.00000000
      0.33000000	     -2.15305244	     -1.97306463	     -4.06308685	     -0.83766656	      0.85905030	     -0.20960022	    -14.55169152	     -5.51585208	      0.44240633	     14.58644969	     12.30201366	      0.25458157	     17.37253164	      4.38969441	     -8.78230360	     26.73973309	    -12.17722049	     -8.77583718	     11.46701152	     17.11545825	      0.20013711	     -2.98640067	     -6.79689615	     -8.78230360	    -10.66373847	      2.58495134	      6.80144248	      3.23513501	    -20.02457618	     -0.77220416	     39.25210803	     90.00000001	      0.00000000	      0.00000000	    -14.86370912	     -5.09967160	     -4.82769462	     16.35291412	     90.00000001	      0.00000000	      0.00000000
      0.34000000	     -2.10307995	     -1.56809749	     -3.92167506	     -0.82486304	      0.85915981	     -0.21132967	    -14.67977685	     -6.21483198	      0.65574956	     16.02883483	     12.39824444	      0.27975594	     16.23406060	      4.17631984	     -8.74859267	     26.80577703	    -11.68256653	     -8.11499843	     13.01516369	     17.34424482	      0.22715746	     -3.92787658	     -7.48269108	     -8.74859267	    -10.61270891	      1.97860251	      6.67979862	      2.95035676	    -19.75585044	     -1.11510725	     38.55146096	     90.00000001	      0.00000000	      0.00000000	    -14.82013817	     -5.18695491	     -4.84231799	     16.23994049	     90.00000001	      0.00000000	      0.00000000
      0.35000000	     -1.98895330	     -1.12698390	     -3.69461677	     -0.81200602	      0.85968922	     -0.21319666	    -14.82503046	     -6.93290571	      0.79221022	     17.54159048	     12.53780800	      0.30615851	     14.84988364	      3.95111429	     -8.72122632	     26.75910874	    -11.13301867	     -7.27661067	     14.50517581	     17.64213535	      0.25316308	     -4.58186949	     -8.12094038	     -8.72122632	    -10.65012360	      1.33624130	      6.50071355	      2.61711699	    -19.48129084	     -1.42225506	     37.85180174	     90.00000001	      0.00000000	      0.00000000	    -14.71155757	     -5.31452327	     -4.85140621	     16.16212023	     90.00000001	      0.00000000	      0.00000000
      0.36000000	     -1.86806724	     -0.69267292	     -3.42397390	     -0.79916109	      0.86057225	     -0.21518614	    -14.85497000	     -7.62977461	      0.77204014	     19.26427912	     12.66410778	      0.33622510	     13.12970784	      3.63397572	     -8.69482177	     26.65252435	    -10.58306423	     -6.40607940	     15.95569154	     17.97036180	      0.27847935	     -5.01886548	     -8.79752791	     -8.69482177	    -10.70339481	      0.72278782	      6.30947488	      2.26877429	    -19.18557129	     -1.76276248	     37.04968329	     90.00000001	      0.00000000	      0.00000000	    -14.52408842	     -5.45695854	     -4.85004987	     16.07456515	     90.00000001	      0.00000000	      0.00000000
      0.37000000	     -1.75402227	     -0.28999979	     -3.07348701	     -0.78640465	      0.86178897	     -0.21722999	    -14.75674884	     -8.24653158	      0.67038465	     21.16252976	     12.78795392	      0.36935582	     11.10195040	      3.19714738	     -8.67582480	     26.45159444	    -10.03882320	     -5.40672583	     17.19476100	     18.36762351	      0.30010519	     -5.26341224	     -9.58761206	     -8.67582480	    -10.77501350	      0.14395169	      6.08427539	      1.92052461	    -18.86628396	     -2.14430247	     36.13050760	     90.00000001	      0.00000000	      0.00000000	    -14.17492845	     -5.62104959	     -4.84891192	     15.91413712	     90.00000001	      0.00000000	      0.00000000
      0.38000000	     -1.65086443	      0.05558957	     -2.71460706	     -0.77372324	      0.86331192	     -0.21930710	    -14.48694255	     -8.78324324	      0.37652105	     23.30577270	     12.81584876	      0.40676247	      8.80354159	      2.71304867	     -8.65365194	     26.15851815	     -9.52944277	     -4.39495480	     18.25947473	     18.76574763	      0.31868795	     -5.27971205	    -10.26036917	     -8.65365194	    -10.85735161	     -0.34792895	      5.88021187	      1.57067477	    -18.51551390	     -2.59677732	     35.13090644	     90.00000001	      0.00000000	      0.00000000	    -13.81092235	     -5.80454455	     -4.84893370	     15.79503715	     90.00000001	      0.00000000	      0.00000000
      0.39000000	     -1.52593206	      0.34284124	     -2.35239575	     -0.76116642	      0.86507909	     -0.22140988	    -14.08527640	     -9.26854384	      0.04260226	     25.64247253	     12.84236191	      0.44754557	      6.24618745	      2.24942038	     -8.63547502	     25.69191299	     -9.07454899	     -3.56626813	     19.09693672	     19.16786777	      0.33330442	     -4.93659357	    -10.66473809	     -8.63547502	    -10.99435780	     -0.75988680	      5.68865434	      1.17140681	    -18.22278154	     -2.96353487	     34.25855275	     90.00000001	      0.00000000	      0.00000000	    -13.37198508	     -5.98557144	     -4.84472131	     15.78672558	     90.00000001	      0.00000000	      0.00000000
      0.40000000	     -1.44581091	      0.54139478	     -1.98995889	     -0.74879168	      0.86696711	     -0.22352252	    -13.43065076	     -9.66377696	     -0.43320874	     28.26346572	     12.78251319	      0.49329053	      3.54256770	      1.72883023	     -8.61664738	     25.15365454	     -8.68463158	     -2.86386273	     19.72741962	     19.51479281	      0.34430843	     -4.44841731	    -10.81668543	     -8.61664738	    -11.10422462	     -1.04837150	      5.51655076	      0.76770909	    -17.96244098	     -3.34070618	     33.34209200	     90.00000001	      0.00000000	      0.00000000	    -12.91413639	     -6.14130229	     -4.84447131	     15.83378777	     90.00000001	      0.00000000	      0.00000000
